<?xml version="1.0" encoding="utf-8"?>
<!-- Generator: Adobe Illustrator 22.0.1, SVG Export Plug-In . SVG Version: 6.00 Build 0)  -->
<svg version="1.1" id="Layer_1" xmlns="http://www.w3.org/2000/svg" xmlns:xlink="http://www.w3.org/1999/xlink" x="0px" y="0px"
	 width="500px" height="500px" viewBox="0 0 500 500" style="enable-background:new 0 0 500 500;" xml:space="preserve">
<style type="text/css">
	.st0{fill:#833D94;}
	.st1{fill:#42ADE5;}
	.st2{fill:#F9E06F;}
	.st3{fill:#C6DE6C;}
	.st4{fill:#ED9F4A;}
	.st5{fill:#FC3198;}
</style>
<g>
	<path class="st0" d="M250,136.2c-5.5,0-10-4.5-10-10V78.8c0-5.5,4.5-10,10-10s10,4.5,10,10v47.4C260,131.7,255.5,136.2,250,136.2z"
		/>
	<path class="st1" d="M411,249.9h-47.4c-5.5,0-10-4.5-10-10s4.5-10,10-10H411c5.5,0,10,4.5,10,10S416.6,249.9,411,249.9z"/>
	<path class="st2" d="M136.3,249.9H89c-5.5,0-10-4.5-10-10s4.5-10,10-10h47.4c5.5,0,10,4.5,10,10S141.8,249.9,136.3,249.9z"/>
	<path class="st3" d="M330.4,169.5c-2.6,0-5.1-1-7.1-2.9c-3.9-3.9-3.9-10.2,0-14.1l33.5-33.5c3.9-3.9,10.2-3.9,14.1,0
		c3.9,3.9,3.9,10.2,0,14.1l-33.5,33.5C335.5,168.5,332.9,169.5,330.4,169.5z"/>
	<path class="st4" d="M169.6,169.5c-2.6,0-5.1-1-7.1-2.9l-33.5-33.5c-3.9-3.9-3.9-10.2,0-14.1c3.9-3.9,10.2-3.9,14.1,0l33.5,33.5
		c3.9,3.9,3.9,10.2,0,14.1C174.7,168.5,172.2,169.5,169.6,169.5z"/>
	<path class="st5" d="M212.1,363.3c-5.5,0-10-4.5-10-10c0-19.7-7-38.3-19.8-52.5c-15.3-16.9-23.6-38.8-23.4-61.7
		c0.4-49.1,40.7-89.6,89.7-90.3c0,0,0.1,0,0.1,0c5.5,0,9.9,4.4,10,9.9c0.1,5.5-4.3,10.1-9.9,10.1c-38.3,0.5-69.7,32.1-70,70.4
		c-0.1,17.8,6.3,34.9,18.2,48.1c16.1,17.8,24.9,41.2,24.9,65.9C222.1,358.8,217.6,363.3,212.1,363.3z"/>
	<path class="st1" d="M298.5,385.9h-97c-5.5,0-10-4.5-10-10s4.5-10,10-10h97c5.5,0,10,4.5,10,10S304,385.9,298.5,385.9z"/>
	<path class="st1" d="M298.5,408.5h-97c-5.5,0-10-4.5-10-10s4.5-10,10-10h97c5.5,0,10,4.5,10,10S304,408.5,298.5,408.5z"/>
	<path class="st1" d="M272.6,431.2h-45.2c-5.5,0-10-4.5-10-10s4.5-10,10-10h45.2c5.5,0,10,4.5,10,10S278.1,431.2,272.6,431.2z"/>
	<path class="st4" d="M287.9,363.3c-5.5,0-10-4.5-10-10c0-24.6,8.9-48,25-66c11.7-13,18.1-29.9,18.1-47.4c0-19.2-7.5-37.1-21.2-50.6
		c-13.6-13.5-31.7-20.7-50.9-20.4c-5.5,0.1-10.1-4.3-10.1-9.9c-0.1-5.5,4.3-10.1,9.9-10.1c24.6-0.3,47.7,9,65.2,26.2
		c17.5,17.2,27.1,40.3,27.1,64.8c0,22.5-8.2,44-23.2,60.7c-12.9,14.4-19.9,33.1-19.9,52.7C297.9,358.8,293.4,363.3,287.9,363.3z"/>
</g>
</svg>
