<?xml version="1.0" encoding="utf-8"?>
<!-- Generator: Adobe Illustrator 22.0.1, SVG Export Plug-In . SVG Version: 6.00 Build 0)  -->
<svg version="1.1" id="Layer_1" xmlns="http://www.w3.org/2000/svg" xmlns:xlink="http://www.w3.org/1999/xlink" x="0px" y="0px"
	 width="500px" height="500px" viewBox="0 0 500 500" style="enable-background:new 0 0 500 500;" xml:space="preserve">
<style type="text/css">
	.st0{fill:#833D94;}
	.st1{fill:#42ADE5;}
	.st2{fill:#C6DE6C;}
	.st3{fill:#ED9F4A;}
	.st4{fill:#F9E06F;}
	.st5{fill:#FC3198;}
</style>
<g>
	<path class="st0" d="M201.6,435.7c-2.6,0-5.3-1-7.3-3.1c-5.6-5.9-11.2-12.1-16.4-18.5l-9.7,7.1c-4.5,3.2-10.7,2.3-14-2.2
		c-3.2-4.5-2.3-10.7,2.2-14l17.3-12.6c4.3-3.1,10.4-2.3,13.7,1.9c6.7,8.5,13.9,16.7,21.4,24.6c3.8,4,3.6,10.3-0.4,14.1
		C206.6,434.7,204.1,435.7,201.6,435.7z"/>
	<path class="st1" d="M82.1,288.1c-1,0-2-0.1-3-0.5c-5.3-1.6-8.2-7.2-6.6-12.5c6.1-19.4,16.2-32.1,22-38.1
		c-5.3-40.3,4.8-80.4,28.6-113.6C148,88.9,184.8,66,226.8,59.1c8.5-1.4,17.2-2.1,25.8-2.1c75.7,0,141.5,53.9,156.3,128.1
		c1.1,5.4-2.4,10.7-7.8,11.8c-5.4,1.1-10.7-2.4-11.8-7.8C376.4,124.1,318.9,77,252.7,77c-7.6,0-15.2,0.6-22.6,1.8
		c-36.8,6-69,26-90.7,56.3c-21.7,30.3-30.4,67.2-24.3,103.9c0.6,3.6-0.8,7.2-3.6,9.4c-0.1,0.1-13.1,11-19.8,32.6
		C90.3,285.4,86.4,288.1,82.1,288.1z"/>
	<path class="st2" d="M264.9,443c-2.2,0-4.4-0.7-6.2-2.2c-2.2-1.7-4.3-3.5-6.4-5.2c-27.4-22.7-51.1-49.3-70.5-79
		c-9.7,5.2-27.3,17-38,39.2c-2.4,5-8.4,7-13.4,4.6c-5-2.4-7.1-8.4-4.6-13.4c19.1-39.4,55-52.1,56.6-52.6c4.4-1.5,9.3,0.2,11.7,4.2
		c19.2,30.9,43.1,58.4,71,81.6c2,1.7,4,3.3,6.1,4.9c4.3,3.4,5.1,9.7,1.6,14C270.7,441.7,267.8,443,264.9,443z"/>
	<path class="st3" d="M90.9,332.6c-1.7,0-3.5-0.4-5-1.4c-4.8-2.8-6.4-8.9-3.6-13.7c20-34.2,43.1-49.9,55.6-56.3
		c-3.3-11.7-5-20.4-5.7-25c-5.3-32.2,2.3-64.5,21.3-91c19-26.5,47.2-44,79.4-49.3c6.5-1.1,13.2-1.6,19.8-1.6
		c58.5,0,108.8,41.6,119.9,99c0.6,2.2,3.9,14.2,12.3,27.6c6.4,10.3,14.4,19.4,23.7,27.1c4.5,3.7,9.4,7.2,14.6,10.3
		c4.7,2.9,6.3,9,3.4,13.7c-2.8,4.7-9,6.3-13.7,3.4c-6.1-3.6-11.8-7.7-17-12c-11-9.1-20.4-19.8-27.9-31.9
		c-10.2-16.3-14.1-30.8-14.8-33.6l-0.1-0.5c-9.1-48.1-51.3-83-100.3-83c-5.5,0-11.1,0.5-16.5,1.3c-26.9,4.4-50.5,19-66.4,41.2
		c-15.9,22.1-22.2,49.2-17.8,76.1c0.8,5.2,3,16,7.6,30.9l3,9.6l-9.7,2.9c-0.2,0.1-29,9.6-53.3,51.2
		C97.7,330.9,94.3,332.6,90.9,332.6z"/>
	<path class="st4" d="M309.5,429.3c-1.9,0-3.8-0.5-5.5-1.7c-9.7-6.4-19.1-13.4-27.9-20.8c-26.5-22-49.2-48.1-67.4-77.4
		c-30.3-48.9-38.4-91.3-39.7-99.3c-3.7-22.3,1.6-44.8,14.8-63.2c13.2-18.4,32.8-30.5,55.1-34.2c4.5-0.7,9.1-1.1,13.7-1.1
		c40.9,0,75.9,29.2,83.3,69.4c0.4,1.9,4.6,19.6,17.1,39.6c8.5,13.7,19.2,25.8,31.6,36.1c8.9,7.4,19,13.9,29.9,19.5
		c4.9,2.5,6.9,8.5,4.4,13.4c-2.5,4.9-8.5,6.9-13.4,4.4c-12.2-6.2-23.5-13.6-33.5-21.9c-14.1-11.6-26.1-25.4-35.8-40.9
		c-14.5-23.2-19.2-43.8-19.7-46.1c0-0.1,0-0.2-0.1-0.3c-5.6-30.8-32.4-53.2-63.7-53.2c-3.5,0-7,0.3-10.5,0.9
		c-17.1,2.8-32,12.1-42.1,26.1c-10.1,14-14.1,31.2-11.3,48.2c1.2,7.3,8.7,46.3,37,92c17,27.5,38.3,51.9,63.1,72.6
		c8.3,6.9,17.1,13.4,26.2,19.5c4.6,3.1,5.9,9.3,2.8,13.9C315.9,427.7,312.8,429.3,309.5,429.3z"/>
	<path class="st5" d="M345.4,407.6c-1.7,0-3.4-0.4-5-1.3c-14.4-8.3-28-17.8-40.5-28.1c-23.4-19.5-43.4-42.5-59.5-68.4
		c-27.1-43.8-33.9-81.5-34.6-85.7c-2.1-12.5,0.9-25,8.3-35.3c7.4-10.3,18.3-17.1,30.8-19.1c2.5-0.4,5.1-0.6,7.7-0.6
		c23.1,0,42.7,16.5,46.6,39.2c0.3,1.3,5.2,25.2,22.1,52.2c10.7,17.1,24,32.3,39.5,45.1c12.6,10.4,26.9,19.4,42.6,26.8
		c5,2.4,7.1,8.3,4.8,13.3c-2.4,5-8.3,7.1-13.3,4.8c-17.1-8.1-32.9-18-46.8-29.5c-17.2-14.2-31.9-31-43.7-49.9
		c-19.3-30.8-24.6-58-24.8-59.1c0-0.1,0-0.1,0-0.2c-2.3-13.2-13.6-22.7-26.9-22.7c-1.5,0-3,0.1-4.4,0.4c-7.2,1.2-13.5,5.1-17.8,11
		c-4.3,5.9-6,13.2-4.8,20.4c0.6,3.7,6.8,37.8,31.9,78.4c14.9,24.1,33.5,45.4,55.3,63.5c11.6,9.7,24.3,18.5,37.7,26.2
		c4.8,2.8,6.4,8.9,3.7,13.7C352.3,405.8,348.9,407.6,345.4,407.6z"/>
	<path class="st5" d="M107.5,367.7c-1.8,0-3.6-0.5-5.2-1.5c-4.7-2.9-6.2-9-3.4-13.7c0.8-1.4,20.6-33.4,58.7-53.4
		c4.9-2.6,10.9-0.7,13.5,4.2c2.6,4.9,0.7,10.9-4.2,13.5c-33.3,17.4-50.8,45.8-50.9,46.1C114.2,366,110.9,367.7,107.5,367.7z"/>
	<path class="st0" d="M379.3,384.3c-1.5,0-3-0.3-4.5-1.1c-59.7-29.9-92.5-73-109.5-103.9c-18.5-33.6-22.8-60.2-22.9-61.3
		c-0.8-5.5,2.9-10.6,8.3-11.4c5.4-0.8,10.6,2.9,11.4,8.3c0.1,0.4,4.1,24.9,21.1,55.5c22.7,41,56.5,72.9,100.5,94.9
		c4.9,2.5,6.9,8.5,4.5,13.4C386.5,382.3,383,384.3,379.3,384.3z"/>
</g>
</svg>
