<?xml version="1.0" encoding="utf-8"?>
<!-- Generator: Adobe Illustrator 22.0.1, SVG Export Plug-In . SVG Version: 6.00 Build 0)  -->
<svg version="1.1" id="Layer_1" xmlns="http://www.w3.org/2000/svg" xmlns:xlink="http://www.w3.org/1999/xlink" x="0px" y="0px"
	 width="500px" height="500px" viewBox="0 0 500 500" style="enable-background:new 0 0 500 500;" xml:space="preserve">
<style type="text/css">
	.st0{fill:#42ADE5;}
	.st1{fill:#FC3198;}
	.st2{fill:#833D94;}
	.st3{fill:#F9E06F;}
	.st4{fill:#C6DE6C;}
</style>
<g>
	<g>
		<path class="st0" d="M183,427.5c-2.5,0-5-0.9-6.9-2.8c-4-3.8-4.1-10.1-0.3-14.1c15.8-16.5,19.2-49,19.2-60.1c0-5.5,4.5-10,10-10
			s10,4.5,10,10c0,2-0.3,48.3-24.8,73.9C188.3,426.5,185.7,427.5,183,427.5z"/>
		<path class="st0" d="M317,427.5c-2.6,0-5.3-1-7.2-3.1c-24.5-25.6-24.8-72-24.8-73.9c0-5.5,4.5-10,10-10s10,4.5,10,10
			c0,0.1,0.1,10.5,2.6,23.3c3.2,16.1,9,28.8,16.6,36.8c3.8,4,3.7,10.3-0.3,14.1C322,426.6,319.5,427.5,317,427.5z"/>
	</g>
	<path class="st1" d="M361,427.5H139c-5.5,0-10-4.5-10-10s4.5-10,10-10h222c5.5,0,10,4.5,10,10S366.5,427.5,361,427.5z"/>
	<path class="st2" d="M412,360.5H88c-18.5,0-33.5-15-33.5-33.5V106c0-18.5,15-33.5,33.5-33.5H412c18.5,0,33.5,15,33.5,33.5V327
		C445.5,345.5,430.5,360.5,412,360.5z M88,92.5c-7.4,0-13.5,6-13.5,13.5V327c0,7.4,6,13.5,13.5,13.5H412c7.4,0,13.5-6,13.5-13.5V106
		c0-7.4-6-13.5-13.5-13.5H88z"/>
	<path class="st3" d="M435.5,118.5h-371c-5.5,0-10-4.5-10-10s4.5-10,10-10h371c5.5,0,10,4.5,10,10S441,118.5,435.5,118.5z"/>
	<path class="st4" d="M435.5,307.5h-371c-5.5,0-10-4.5-10-10s4.5-10,10-10h371c5.5,0,10,4.5,10,10S441,307.5,435.5,307.5z"/>
</g>
</svg>
