<?xml version="1.0" encoding="utf-8"?>
<!-- Generator: Adobe Illustrator 22.0.1, SVG Export Plug-In . SVG Version: 6.00 Build 0)  -->
<svg version="1.1" id="Layer_1" xmlns="http://www.w3.org/2000/svg" xmlns:xlink="http://www.w3.org/1999/xlink" x="0px" y="0px"
	 width="500px" height="500px" viewBox="0 0 500 500" style="enable-background:new 0 0 500 500;" xml:space="preserve">
<style type="text/css">
	.st0{fill:#833D94;}
	.st1{fill:none;stroke:#F9E06F;stroke-width:20;stroke-linecap:round;stroke-linejoin:round;stroke-miterlimit:10;}
	.st2{fill:#ED9F4A;}
	.st3{fill:#FC3198;}
	.st4{fill:#42ADE5;}
	.st5{fill:#C6DE6C;}
</style>
<g>
	<path class="st0" d="M214.6,421.4c-6.3,0-11.3-5.1-11.3-11.3c0-6.3,5.1-11.3,11.3-11.3c28.4,0,51.6-23.1,51.6-51.6
		c0-28.4-23.1-51.6-51.6-51.6c-6.3,0-11.3-5.1-11.3-11.3s5.1-11.3,11.3-11.3c41,0,74.3,33.3,74.3,74.3S255.5,421.4,214.6,421.4z"/>
	<path class="st1" d="M405.5,199.8"/>
	<path class="st2" d="M282.8,211.1c-2.9,0-5.8-1.1-8-3.3c-4.4-4.4-4.4-11.6,0-16l61.3-61.3c4.4-4.4,11.6-4.4,16,0
		c4.4,4.4,4.4,11.6,0,16l-61.3,61.3C288.6,210,285.7,211.1,282.8,211.1z"/>
	<path class="st3" d="M204.2,210.9c-2.9,0-5.8-1.1-8-3.3L86.5,97.9c-4.4-4.4-4.4-11.6,0-16c4.4-4.4,11.6-4.4,16,0l109.7,109.7
		c4.4,4.4,4.4,11.6,0,16C210,209.8,207.1,210.9,204.2,210.9z"/>
	<path class="st4" d="M94.5,210.9c-2.9,0-5.8-1.1-8-3.3c-4.4-4.4-4.4-11.6,0-16L196.2,81.9c4.4-4.4,11.6-4.4,16,0s4.4,11.6,0,16
		L102.6,207.6C100.3,209.8,97.4,210.9,94.5,210.9z"/>
	<path class="st3" d="M277.5,358.5c-6.3,0-11.3-5.1-11.3-11.3s5.1-11.3,11.3-11.3c30.5,0,55.3-24.8,55.3-55.3V138.4
		c0-6.3,5.1-11.3,11.3-11.3s11.3,5.1,11.3,11.3v142.1C355.5,323.5,320.5,358.5,277.5,358.5z"/>
	<path class="st5" d="M405.5,211.1c-2.9,0-5.8-1.1-8-3.3l-61.3-61.3c-4.4-4.4-4.4-11.6,0-16c4.4-4.4,11.6-4.4,16,0l61.3,61.3
		c4.4,4.4,4.4,11.6,0,16C411.3,210,408.4,211.1,405.5,211.1z"/>
	<path class="st4" d="M214.6,421.4c-41,0-74.3-33.3-74.3-74.3s33.3-74.3,74.3-74.3c6.3,0,11.3,5.1,11.3,11.3s-5.1,11.3-11.3,11.3
		c-28.4,0-51.6,23.1-51.6,51.6c0,28.4,23.1,51.6,51.6,51.6c6.3,0,11.3,5.1,11.3,11.3C225.9,416.4,220.9,421.4,214.6,421.4z"/>
</g>
</svg>
