<?xml version="1.0" encoding="utf-8"?>
<!-- Generator: Adobe Illustrator 22.0.1, SVG Export Plug-In . SVG Version: 6.00 Build 0)  -->
<svg version="1.1" id="Layer_1" xmlns="http://www.w3.org/2000/svg" xmlns:xlink="http://www.w3.org/1999/xlink" x="0px" y="0px"
	 width="500px" height="500px" viewBox="0 0 500 500" style="enable-background:new 0 0 500 500;" xml:space="preserve">
<style type="text/css">
	.st0{fill:#F9E06F;}
	.st1{fill:#42ADE5;}
	.st2{fill:#FC3198;}
	.st3{fill:#C6DE6C;}
	.st4{fill:#833D94;}
	.st5{fill:#ED9F4A;}
</style>
<g>
	<path class="st0" d="M360.2,173.5c-3.9,0-7.7-2.3-9.3-6.2l-14.1-34.5c-2-5-6.9-8.3-12.3-8.3h-89.1c-5.4,0-10.2,3.2-12.3,8.3
		l-14.1,34.5c-2.1,5.1-7.9,7.6-13,5.5c-5.1-2.1-7.6-7.9-5.5-13l14.1-34.5c5.1-12.6,17.2-20.7,30.8-20.7h89.1
		c13.6,0,25.7,8.1,30.8,20.7l14.1,34.5c2.1,5.1-0.4,11-5.5,13C362.7,173.3,361.5,173.5,360.2,173.5z"/>
	<path class="st1" d="M405.2,395.5H94.8c-22.2,0-40.3-18.1-40.3-40.3V193.8c0-22.2,18.1-40.3,40.3-40.3h131.3c5.5,0,10,4.5,10,10
		s-4.5,10-10,10H94.8c-11.2,0-20.3,9.1-20.3,20.3v161.3c0,11.2,9.1,20.3,20.3,20.3h310.3c11.2,0,20.3-9.1,20.3-20.3V193.8
		c0-11.2-9.1-20.3-20.3-20.3h-71.3c-5.5,0-10-4.5-10-10s4.5-10,10-10h71.3c22.2,0,40.3,18.1,40.3,40.3v161.3
		C445.5,377.4,427.4,395.5,405.2,395.5z"/>
	<path class="st2" d="M160.5,173.5c-5.5,0-10-4.5-10-10V137H118v26.5c0,5.5-4.5,10-10,10s-10-4.5-10-10v-27.9
		c0-10.3,8.3-18.6,18.6-18.6h35.3c10.3,0,18.6,8.3,18.6,18.6v27.9C170.5,169,166,173.5,160.5,173.5z"/>
	<path class="st3" d="M126.5,245.5c-15.7,0-28.5-12.8-28.5-28.5s12.8-28.5,28.5-28.5S155,201.3,155,217S142.2,245.5,126.5,245.5z
		 M126.5,208.5c-4.7,0-8.5,3.8-8.5,8.5s3.8,8.5,8.5,8.5s8.5-3.8,8.5-8.5S131.2,208.5,126.5,208.5z"/>
	<path class="st4" d="M280,366.5c-62.9,0-114-51.1-114-114c0-62.9,51.1-114,114-114c62.9,0,114,51.1,114,114
		C394,315.4,342.9,366.5,280,366.5z M280,158.5c-51.8,0-94,42.2-94,94s42.2,94,94,94s94-42.2,94-94S331.8,158.5,280,158.5z"/>
	<path class="st5" d="M280,333.9c-44.9,0-81.4-36.5-81.4-81.4s36.5-81.4,81.4-81.4s81.4,36.5,81.4,81.4S324.9,333.9,280,333.9z
		 M280,181.1c-39.4,0-71.4,32-71.4,71.4c0,39.4,32,71.4,71.4,71.4c39.4,0,71.4-32,71.4-71.4C351.4,213.1,319.4,181.1,280,181.1z"/>
</g>
</svg>
