<?xml version="1.0" encoding="utf-8"?>
<!-- Generator: Adobe Illustrator 22.0.1, SVG Export Plug-In . SVG Version: 6.00 Build 0)  -->
<svg version="1.1" id="Layer_1" xmlns="http://www.w3.org/2000/svg" xmlns:xlink="http://www.w3.org/1999/xlink" x="0px" y="0px"
	 width="500px" height="500px" viewBox="0 0 500 500" style="enable-background:new 0 0 500 500;" xml:space="preserve">
<style type="text/css">
	.st0{fill:#F9E06F;}
	.st1{fill:#833D94;}
	.st2{fill:#C6DE6C;}
	.st3{fill:#ED9F4A;}
	.st4{fill:#42ADE5;}
	.st5{fill:#FC3198;}
</style>
<g>
	<circle class="st0" cx="74.5" cy="322.2" r="25.5"/>
	<path class="st1" d="M74.5,332.2c-2.9,0-5.7-1.2-7.7-3.6c-3.5-4.3-2.9-10.6,1.4-14.1l117-96.3c4.3-3.5,10.6-2.9,14.1,1.4
		c3.5,4.3,2.9,10.6-1.4,14.1L80.9,330C79,331.5,76.7,332.2,74.5,332.2z"/>
	<circle class="st2" cx="191.5" cy="225.9" r="25.5"/>
	<path class="st0" d="M308.5,284.1c-1.3,0-2.6-0.2-3.8-0.8l-117-48.2c-5.1-2.1-7.5-7.9-5.4-13.1c2.1-5.1,7.9-7.5,13.1-5.4l117,48.2
		c5.1,2.1,7.5,7.9,5.4,13.1C316.2,281.8,312.4,284.1,308.5,284.1z"/>
	<circle class="st3" cx="308.5" cy="274.1" r="25.5"/>
	<path class="st4" d="M308.5,284.1c-2.9,0-5.7-1.2-7.7-3.6c-3.5-4.3-2.9-10.6,1.4-14.1l117-96.3c4.3-3.5,10.6-2.9,14.1,1.4
		s2.9,10.6-1.4,14.1l-117,96.3C313,283.3,310.7,284.1,308.5,284.1z"/>
	<circle class="st5" cx="425.5" cy="177.8" r="25.5"/>
</g>
</svg>
