<?xml version="1.0" encoding="utf-8"?>
<!-- Generator: Adobe Illustrator 22.0.1, SVG Export Plug-In . SVG Version: 6.00 Build 0)  -->
<svg version="1.1" id="Layer_1" xmlns="http://www.w3.org/2000/svg" xmlns:xlink="http://www.w3.org/1999/xlink" x="0px" y="0px"
	 width="363.5px" height="237.6px" viewBox="0 0 363.5 237.6" style="enable-background:new 0 0 363.5 237.6;" xml:space="preserve"
	>
<path d="M363.4,66.7c-0.2-2-1.5-3.1-3.5-3.2c-6-0.4-12-2.1-18.1-0.2c-1.8,0.5-3.4,1.8-5.6,1.6c-7.7-0.6-15.1,2.3-22.8,1.5
	c-0.7-0.1-1.6-0.2-2.2,0.1c-6.5,2.8-13.5,1.4-20.3,2.4c-7.4,1-15,2.8-22.7,2c-0.5,0-1,0-1.5,0.1c-7.7,1.5-15.4,2.7-23.3,2.8
	c-1.2,0-2.6-0.2-3.7,0.2c-6.6,2.1-13.6,1.1-18.9,2.8c-1.9,0-2.4,0-2.5,0.1c-6.8,0.4-6.8,0.4-6.5-6.2c0-1.2,0-2.5,0.4-3.6
	c1.9-5.3,0.9-10.7,0.9-16.1c0-0.8-1.4-1.5-0.4-2.5c3.8-3.5,2.8-8.3,3.3-12.7c0.6-6.2,1.4-12.4,1.6-18.6c0.1-4.3-0.7-8.5,1.3-12.6
	c0.8-1.6,0.5-3.9-1.5-4.3c-1.6-0.4-1.9,2-2.2,3.1c-0.8,3,0,6.4-3,8.8c-0.6,0.4-0.6,1.9-0.4,2.8c0.5,2.8-0.8,5.3-1.6,7.8
	c-1.1,3.3-2.4,6.5-0.5,9.9c-2.7,2.2-3.6,5.4-3.8,8.7c-0.4,6.7-2.9,12.8-4,19.3c-0.7,4-3.4,7.8-1.3,12.1c0.2,0.4-0.3,1.2-0.5,1.9
	c-1.3,5.2-5.3,6.9-10,6.6c-7.7-0.5-15.1,1.9-22.8,2c-3,0-4.3-0.2-5.3-2.9c-1.7-4.3-2.5-9-5.1-12.9c-0.5-0.7-0.1-2.4-1.6-1.8
	c-1.3,0.6-3.2,0.7-3.1,2.7c0.2,4.5-0.9,8.9,0.6,13.3c1.1,3.5,0.9,3.6-2.5,4.3c-5.7,1.1-11.6,1.9-17.2,3.4
	c-12.1,3.1-24.5,4.1-36.6,6.8c-6.9,1.5-14.1,1.6-20.9,3.4c-10.7,2.8-21.3,5.1-32.3,5.7c-1.6,0.1-2.8,0.9-4.2,1.2
	c-4.8,1-9.5,2.8-14.5,3.3c-7.8,0.8-15.1,4.1-22.5,6.4c-1.4,0.5-2.3,1.9-2,3.6c0.4,2.2,2.1,1.7,3.5,1.7c0.9,0,1.9-0.7,2.8-0.7
	c4.5,0,8.1-3.6,12.6-3.6c4.9,0,9.6-1.7,14.4-2.5c6.2-1,12.2-3.1,18.6-3.7c3.8-0.4,7.7-1.2,11.5-1.8c7.2-1.2,14.3-3.4,21.5-3.8
	c8.8-0.5,17.5-2.2,26.1-3.7c12.4-2.2,25-3.7,37.3-6.8c1.9-0.5,3.9-0.2,5.9-0.2c1.1,0,1.9,0.5,2.1,1.7c1,7.3,4.5,13.9,6.2,21
	c0.3,1.3,1.9,2.4,0.6,4c-1.1,1.4-2.2,2.7-4.1,3.1c-8.2,1.6-15.7,5.1-23.7,7.4c-1.6,0.5-3.3,1-4.8,1.7c-1,0.5-2.6,1-1.9,2.6
	c0.4,0.9,1.3,1.3,2.4,1.5c3.8,0.6,7.3-0.7,10.9-1.3c7-1.1,14.1-1.7,20.9-3.5c3.2-0.9,4.8,0,6.1,2.1c1.6,2.5,2.8,5.2,3.8,8
	c1.9,5.1,1.8,5.1-3.2,7.1c-1.8,0.7-3.5,1.9-5.3,2.6c-2.3,0.9-2,2.6-1.7,4.3c0.5,2.6,2.2,4.5,5,4.6c2.5,0.1,4.8,0.2,7.3-0.8
	c3.7-1.4,3.6-0.7,5.7,2.9c3.6,6.1,4.7,12.9,6.6,19.4c1.2,4,1.1,3.9-2.4,6.5c-4.3,3.2-9.7,4.5-14.3,7.4c-3.4,2.1-7.1,4.3-11,5.8
	c-12.9,4.9-24.8,12-37.2,17.9c-5.1,2.4-8.6,6.6-11.9,10.9c-0.7,1-2.4,2.5-1.1,3.9c1.1,1.2,2.7,2.1,4.5,2.2c1.1,0,2-0.3,2.7-1.1
	c1.8-1.9,4.2-2.6,6.4-3.7c15.3-7.9,31.1-14.9,46.7-22.1c15.1-7,30.2-14,45.3-21.1c15.4-7.3,30.8-14.8,46.2-22.3
	c2.6-1.3,5.2-2.8,7.6-4.5c6.1-4.4,7.4-9.3,1.2-15.2c-1.3-1.2-2.6-2-4.4-2.5c-5.2-1.6-10.3-3.1-15.8-2.9c-3.4,0.1-6.9-0.1-10.4,0
	c-6.7,0.2-13.3-0.8-19.9,1.3c-2.2,0.7-4.9,0.6-7.3-0.3c-0.6-0.2-1-1-1.4-1.6c-0.1-0.1,0.4-0.7,0.7-0.9c7.9-3.6,14.9-8.6,22.5-12.6
	c7.1-3.8,14.5-6.9,21.8-10.3c1.3-0.7,2.6-1.4,3.8-2.2c1.1-0.8,1.3-2,1-3.3s-1.3-1.4-2.3-1.4c-2,0-4,0.1-6,0
	c-6.4-0.2-12.7,0.6-19.1,1.2c-3.2,0.3-6.6,0.2-9.9,0.3c-3.7,0.1-7.3-0.3-10.9,1.3c-1.2,0.5-3,0.3-4.4-0.1c-0.9-0.3-2-1-1.8-2.7
	c0.9-6.6,1.5-13.1,2.3-19.7c0.4-2.9,2.4-5.7,4.9-5.6c5.7,0.3,11.1-2.2,16.8-1.8c3.1,0.2,6.3-0.6,9.4-0.9c5.4-0.4,10.7-2.4,16.1-1.9
	c7.9,0.8,15.7-1.2,23.5-1.8c10-0.7,19.9-2.8,30-2.7c0.5,0,1,0.1,1.5,0c10.4-1.9,21-2.7,31.5-2.8c6,0,11.6-1.9,17.6-1.6
	C361.6,72.3,363.7,69,363.4,66.7z M190.5,141.7c-0.2,1.4-1.8,2.3-3.4,2.3c-1.7,0-3.1-1-3.4-2.4c-0.6-2.4-1.8-4.6-2.7-6.8
	c-1.5-3.6-0.4-5.4,3.6-5.9c0.9-0.1,1.9,0,2.9,0c4.6-0.2,4.6,0.1,4.9,5.1C192.5,136.8,190.9,139.1,190.5,141.7z M194.4,105.1
	c-0.8,1.9-0.5,3.9-0.6,5.8c-0.3,5.1-1.9,6.9-7,7.6c-2.7,0.3-5.3,0.1-7.9,1.3c-1.8,0.8-5.2-1.2-5.7-3.6c-1.3-6.4-4.5-12.3-6.2-18.6
	c-1-3.7,0.4-5.6,4.3-6c6.7-0.7,13.5-1.5,20.1-3.2c3.8-1,5.5,0.4,5.3,3C195.8,96.7,196.2,101.1,194.4,105.1z M236,152.6
	c7.2-3.1,14.5,0,21.7,0.2c0.8,0,1.3,0.4,1.4,1.3c0.1,0.9-0.5,1.3-1.2,1.6c-6,2.8-11.9,5.6-18,8.2c-10.4,4.4-20.8,8.9-30.8,14.1
	c-5,2.5-6.3,1.6-6.5-4.2c0-1,0-2,0-3c-0.6-4.5,2-8.6,1.7-13.1c-0.2-1.5,1.1-1.9,2.5-2C216.6,154.9,226.1,151.8,236,152.6z
	 M208,124.7c3.7-1,7.8,0.2,11.5-1.5c0.1,0,0.5,0.7,0.9,1.2c-0.2,0.5-0.4,1.4-0.9,1.7c-3.9,2.4-7.8,4.9-11.9,7.1
	c-2.1,1.1-3.6-0.4-3.6-2.9C204,127.4,205.7,125.4,208,124.7z"/>
</svg>
