<svg id="Layer_1" data-name="Layer 1" xmlns="http://www.w3.org/2000/svg" viewBox="0 0 500 500"><defs><style>.cls-1,.cls-2,.cls-3,.cls-4,.cls-5,.cls-6{fill:none;stroke-linecap:round;stroke-linejoin:round;stroke-width:20px;}.cls-1{stroke:#c6de6c;}.cls-2{stroke:#ed9f4a;}.cls-3{stroke:#833d94;}.cls-4{stroke:#f9e06f;}.cls-5{stroke:#42ade5;}.cls-6{stroke:#fc3198;}</style></defs><title>icons</title><path class="cls-1" d="M191.9,112.41a50.19,50.19,0,0,1-71,71"/><line class="cls-2" x1="199.59" y1="173.48" x2="272.73" y2="216.81"/><path class="cls-3" d="M328.71,315a65.06,65.06,0,0,1,0-130.12"/><line class="cls-4" x1="277.64" y1="290.28" x2="235.96" y2="323.18"/><path class="cls-5" d="M163.08,318.91A48.84,48.84,0,0,1,232.16,388"/><path class="cls-6" d="M328.71,184.91a65.06,65.06,0,1,1,0,130.12"/><path class="cls-4" d="M232.16,388a48.84,48.84,0,1,1-69.08-69.07"/><path class="cls-5" d="M120.92,183.39a50.19,50.19,0,0,1,71-71"/></svg>