<svg id="Layer_1" data-name="Layer 1" xmlns="http://www.w3.org/2000/svg" viewBox="0 0 500 500"><defs><style>.cls-1{fill:#f9e06f;}.cls-2{fill:#42ade5;}.cls-3{fill:#fc3198;}.cls-4{fill:#c6de6c;}.cls-5{fill:#833d94;}.cls-6{fill:#ed9f4a;}</style></defs><title>icons</title><path class="cls-1" d="M360.21,173.5a10,10,0,0,1-9.27-6.22l-14.09-34.53a13.2,13.2,0,0,0-12.28-8.25H235.43a13.2,13.2,0,0,0-12.28,8.25l-14.09,34.53a10,10,0,0,1-18.52-7.56l14.09-34.53a33.14,33.14,0,0,1,30.8-20.69h89.14a33.14,33.14,0,0,1,30.8,20.69l14.09,34.53a10,10,0,0,1-9.25,13.78Z"/><path class="cls-2" d="M405.15,395.5H94.85A40.39,40.39,0,0,1,54.5,355.15V193.85A40.39,40.39,0,0,1,94.85,153.5H226.17a10,10,0,0,1,0,20H94.85A20.37,20.37,0,0,0,74.5,193.85v161.3A20.37,20.37,0,0,0,94.85,375.5h310.3a20.37,20.37,0,0,0,20.35-20.35V193.85a20.37,20.37,0,0,0-20.35-20.35H333.83a10,10,0,0,1,0-20h71.32a40.39,40.39,0,0,1,40.35,40.35v161.3A40.39,40.39,0,0,1,405.15,395.5Z"/><path class="cls-3" d="M160.5,173.5a10,10,0,0,1-10-10V137H118v26.5a10,10,0,0,1-20,0V135.59A18.61,18.61,0,0,1,116.59,117h35.32a18.61,18.61,0,0,1,18.59,18.59V163.5A10,10,0,0,1,160.5,173.5Z"/><path class="cls-4" d="M126.5,245.5A28.5,28.5,0,1,1,155,217,28.54,28.54,0,0,1,126.5,245.5Zm0-37A8.5,8.5,0,1,0,135,217,8.51,8.51,0,0,0,126.5,208.5Z"/><path class="cls-5" d="M280,366.5a114,114,0,1,1,114-114A114.13,114.13,0,0,1,280,366.5Zm0-208a94,94,0,1,0,94,94A94.11,94.11,0,0,0,280,158.5Z"/><path class="cls-6" d="M280,333.91a81.41,81.41,0,1,1,81.41-81.41A81.5,81.5,0,0,1,280,333.91Zm0-152.82a71.41,71.41,0,1,0,71.41,71.41A71.5,71.5,0,0,0,280,181.09Z"/></svg>