<svg id="Layer_1" data-name="Layer 1" xmlns="http://www.w3.org/2000/svg" viewBox="0 0 500 500"><defs><style>.cls-1{fill:#833d94;}.cls-2{fill:#42ade5;}.cls-3{fill:#f9e06f;}.cls-4{fill:#c6de6c;}.cls-5{fill:#ed9f4a;}.cls-6{fill:#fc3198;}</style></defs><title>icons</title><path class="cls-1" d="M250,136.2a10,10,0,0,1-10-10V78.83a10,10,0,1,1,20,0V126.2A10,10,0,0,1,250,136.2Z"/><path class="cls-2" d="M411,249.87H363.67a10,10,0,1,1,0-20H411a10,10,0,1,1,0,20Z"/><path class="cls-3" d="M136.33,249.87H89a10,10,0,1,1,0-20h47.37a10,10,0,1,1,0,20Z"/><path class="cls-4" d="M330.38,169.49a10,10,0,0,1-7.07-17.07l33.49-33.49a10,10,0,0,1,14.14,14.14l-33.49,33.49A10,10,0,0,1,330.38,169.49Z"/><path class="cls-5" d="M169.62,169.49a10,10,0,0,1-7.07-2.93l-33.49-33.49a10,10,0,0,1,14.14-14.14l33.49,33.49a10,10,0,0,1-7.07,17.07Z"/><path class="cls-6" d="M212.11,363.28a10,10,0,0,1-10-10,78.19,78.19,0,0,0-19.78-52.51A90.75,90.75,0,0,1,159,239.12c.4-49.1,40.66-89.6,89.74-90.29h.15a10,10,0,0,1,.13,20c-38.3.54-69.71,32.14-70,70.45a70.84,70.84,0,0,0,18.23,48.11,98.11,98.11,0,0,1,24.92,65.89A10,10,0,0,1,212.11,363.28Z"/><path class="cls-2" d="M298.5,385.91h-97a10,10,0,0,1,0-20h97a10,10,0,0,1,0,20Z"/><path class="cls-2" d="M298.5,408.54h-97a10,10,0,1,1,0-20h97a10,10,0,0,1,0,20Z"/><path class="cls-2" d="M272.59,431.17H227.41a10,10,0,0,1,0-20h45.18a10,10,0,0,1,0,20Z"/><path class="cls-5" d="M287.89,363.28a10,10,0,0,1-10-10,98.69,98.69,0,0,1,25-66,71,71,0,0,0-54-118.42,10,10,0,1,1-.28-20,91,91,0,0,1,69.13,151.76,78.77,78.77,0,0,0-19.94,52.69A10,10,0,0,1,287.89,363.28Z"/></svg>