<svg id="Layer_1" data-name="Layer 1" xmlns="http://www.w3.org/2000/svg" viewBox="0 0 500 500"><defs><style>.cls-1,.cls-10,.cls-2,.cls-3,.cls-4,.cls-5,.cls-6,.cls-7,.cls-8,.cls-9{fill:none;stroke-linecap:round;stroke-linejoin:round;}.cls-1,.cls-5{stroke:#c6de6c;}.cls-1,.cls-10,.cls-8,.cls-9{stroke-width:20px;}.cls-2{stroke:#f9e06f;}.cls-2,.cls-3,.cls-4,.cls-5,.cls-6,.cls-7{stroke-width:10px;}.cls-3,.cls-9{stroke:#fc3198;}.cls-10,.cls-4{stroke:#ed9f4a;}.cls-6{stroke:#42ade5;}.cls-7,.cls-8{stroke:#833d94;}</style></defs><title>icons</title><polyline class="cls-1" points="374.19 194.2 381.96 194.2 381.96 364.03 157.48 364.03 157.48 194.2 267.42 194.2"/><circle class="cls-2" cx="123.35" cy="279.11" r="13.03"/><polyline class="cls-3" points="264.36 294.41 265.53 256 295.72 203.72"/><polyline class="cls-4" points="327.52 222.08 297.33 274.36 264.36 294.41"/><path class="cls-2" d="M295.4,204.27l50.47-87.42A18.36,18.36,0,0,1,371,110.13h0"/><line class="cls-5" x1="327.2" y1="222.63" x2="295.4" y2="204.27"/><path class="cls-6" d="M371,110.13a18.36,18.36,0,0,1,6.72,25.08L327.2,222.63"/><line class="cls-7" x1="269.37" y1="249.36" x2="282.18" y2="256.75"/><path class="cls-8" d="M89.73,372.93V185.29a19.39,19.39,0,0,1,19.4-19.4H284.69"/><path class="cls-9" d="M410.27,372.93a19.39,19.39,0,0,1-19.4,19.4H109.13a19.39,19.39,0,0,1-19.4-19.4"/><path class="cls-10" d="M390.87,165.89a19.39,19.39,0,0,1,19.4,19.4V372.93"/></svg>