<svg id="Layer_1" data-name="Layer 1" xmlns="http://www.w3.org/2000/svg" viewBox="0 0 500 500"><defs><style>.cls-1,.cls-2,.cls-3,.cls-4,.cls-5{fill:none;stroke-linecap:round;stroke-linejoin:round;stroke-width:20px;}.cls-1{stroke:#fc3198;}.cls-2{stroke:#833d94;}.cls-3{stroke:#f9e06f;}.cls-4{stroke:#c6de6c;}.cls-5{stroke:#42ade5;}</style></defs><title>icons</title><path class="cls-1" d="M427.79,204.19v91.62a57.59,57.59,0,0,1-57.6,57.59H316.06A24.53,24.53,0,0,1,293,337.28m-86,0a24.53,24.53,0,0,1-23.05,16.12H129.81a57.59,57.59,0,0,1-57.6-57.59V204.19"/><path class="cls-2" d="M293,337.28l-15.14-41.44c-9.49-26-46.25-26-55.74,0L207,337.28"/><circle class="cls-3" cx="168.17" cy="240.3" r="38.79"/><circle class="cls-4" cx="331.83" cy="240.3" r="38.79"/><path class="cls-5" d="M72.21,204.19a57.59,57.59,0,0,1,57.6-57.59H370.19a57.59,57.59,0,0,1,57.6,57.59"/></svg>