<svg id="Layer_1" data-name="Layer 1" xmlns="http://www.w3.org/2000/svg" viewBox="0 0 500 500"><defs><style>.cls-1{fill:#777;}.cls-2{fill:#42ade5;}.cls-3{fill:#f9e06f;}.cls-4{fill:#fc3198;}.cls-5{fill:#833d94;}.cls-6{fill:#c6de6c;}.cls-7{fill:#ed9f4a;}</style></defs><title>icons</title><path class="cls-1" d="M412,96.75H88a5,5,0,0,1,0-10H412a5,5,0,0,1,0,10Z"/><path class="cls-2" d="M425.5,272.25a5,5,0,0,1-5-5c0-94-76.49-170.5-170.5-170.5S79.5,173.24,79.5,267.25a5,5,0,0,1-10,0c0-99.53,81-180.5,180.5-180.5s180.5,81,180.5,180.5A5,5,0,0,1,425.5,272.25Z"/><circle class="cls-3" cx="88" cy="91.75" r="25.5"/><circle class="cls-3" cx="412" cy="91.75" r="25.5"/><circle class="cls-3" cx="425.5" cy="267.25" r="25.5"/><circle class="cls-3" cx="74.5" cy="267.25" r="25.5"/><rect class="cls-4" x="223" y="64.75" width="54" height="54" rx="14.96" ry="14.96"/><path class="cls-5" d="M277,369.6a10,10,0,0,1-10-10,65.12,65.12,0,0,1,49.86-63.22L250,159.32,183.14,296.38A65.12,65.12,0,0,1,233,359.6a10,10,0,0,1-20,0,45.05,45.05,0,0,0-45-45,10,10,0,0,1-9-14.39l82-168.09a10,10,0,0,1,18,0l82,168.09a10,10,0,0,1-9,14.39,45.05,45.05,0,0,0-45,45A10,10,0,0,1,277,369.6Z"/><path class="cls-6" d="M250,258.05a10,10,0,0,1-10-10V136.51a10,10,0,0,1,20,0V248.05A10,10,0,0,1,250,258.05Z"/><path class="cls-2" d="M263,435.25H237a24,24,0,0,1-24-24V360.6a10,10,0,0,1,20,0v50.67a4,4,0,0,0,4,4h26a4,4,0,0,0,4-4V360.6a10,10,0,0,1,20,0v50.67A24,24,0,0,1,263,435.25Z"/><path class="cls-7" d="M307,370.6H193a10,10,0,0,1,0-20H307a10,10,0,0,1,0,20Z"/></svg>