<svg id="Layer_1" data-name="Layer 1" xmlns="http://www.w3.org/2000/svg" viewBox="0 0 500 500"><defs><style>.cls-1{fill:#833d94;}.cls-2{fill:#ed9f4a;}.cls-3{fill:#fc3198;}.cls-4{fill:#42ade5;}.cls-5{fill:#c6de6c;}</style></defs><title>icons</title><path class="cls-1" d="M214.58,421.44a11.35,11.35,0,0,1,0-22.7,51.57,51.57,0,0,0,0-103.14,11.35,11.35,0,0,1,0-22.7,74.27,74.27,0,0,1,0,148.54Z"/><path class="cls-2" d="M282.84,211.11a11.36,11.36,0,0,1-8-19.38l61.32-61.31a11.35,11.35,0,0,1,16.05,16.05l-61.32,61.31A11.29,11.29,0,0,1,282.84,211.11Z"/><path class="cls-3" d="M204.2,210.93a11.34,11.34,0,0,1-8-3.32L86.5,97.94a11.35,11.35,0,0,1,16-16L212.22,191.56a11.35,11.35,0,0,1-8,19.37Z"/><path class="cls-4" d="M94.53,210.93a11.35,11.35,0,0,1-8-19.37L196.17,81.89a11.35,11.35,0,1,1,16.05,16L102.55,207.61A11.32,11.32,0,0,1,94.53,210.93Z"/><path class="cls-3" d="M277.5,358.52a11.35,11.35,0,0,1,0-22.7,55.37,55.37,0,0,0,55.31-55.3V138.44a11.35,11.35,0,1,1,22.69,0V280.52A78.09,78.09,0,0,1,277.5,358.52Z"/><path class="cls-5" d="M405.47,211.11a11.31,11.31,0,0,1-8-3.33l-61.32-61.31a11.35,11.35,0,1,1,16.05-16.05l61.32,61.31a11.36,11.36,0,0,1-8,19.38Z"/><path class="cls-4" d="M214.58,421.44a74.27,74.27,0,0,1,0-148.54,11.35,11.35,0,0,1,0,22.7,51.57,51.57,0,0,0,0,103.14,11.35,11.35,0,0,1,0,22.7Z"/></svg>