<svg id="Layer_1" data-name="Layer 1" xmlns="http://www.w3.org/2000/svg" viewBox="0 0 500 500"><defs><style>.cls-1{fill:#ed9f4a;}.cls-2{fill:#f9e06f;}.cls-3{fill:#c6de6c;}.cls-4{fill:#42ade5;}.cls-5{fill:#fc3198;}.cls-6{fill:#833d94;}</style></defs><title>icons</title><path class="cls-1" d="M394,337a10,10,0,0,1-10-10V163a10,10,0,0,1,20,0V327A10,10,0,0,1,394,337Z"/><path class="cls-2" d="M394,173a9.92,9.92,0,0,1-4.85-1.26l-144-80a10,10,0,1,1,9.72-17.48l144,80A10,10,0,0,1,394,173Z"/><path class="cls-3" d="M250,427a10,10,0,0,1-5.31-18.48l144-90a10,10,0,1,1,10.6,17l-144,90A10,10,0,0,1,250,427Z"/><path class="cls-4" d="M250,263a10,10,0,0,1-5.31-18.48l144-90a10,10,0,0,1,10.6,17l-144,90A10,10,0,0,1,250,263Z"/><path class="cls-5" d="M106,173a10,10,0,0,1-4.87-18.74l144-80a10,10,0,0,1,9.72,17.48l-144,80A9.92,9.92,0,0,1,106,173Z"/><path class="cls-6" d="M250,427a10,10,0,0,1-5.29-1.52l-144-90a10,10,0,0,1,10.6-17l144,90A10,10,0,0,1,250,427Z"/><path class="cls-6" d="M250,427a10,10,0,0,1-10-10V253a10,10,0,0,1,20,0V417A10,10,0,0,1,250,427Z"/><path class="cls-6" d="M106,337a10,10,0,0,1-10-10V163a10,10,0,0,1,20,0V327A10,10,0,0,1,106,337Z"/><path class="cls-6" d="M250,263a10,10,0,0,1-5.29-1.52l-144-90a10,10,0,0,1,10.6-17l144,90A10,10,0,0,1,250,263Z"/></svg>