<svg id="Layer_1" data-name="Layer 1" xmlns="http://www.w3.org/2000/svg" viewBox="0 0 500 500"><defs><style>.cls-1{fill:#833d94;}.cls-2{fill:#42ade5;}.cls-3{fill:#fc3198;}.cls-4{fill:#ed9f4a;}.cls-5{fill:#f9e06f;}</style></defs><title>icons</title><path class="cls-1" d="M54.86,261.86a11.86,11.86,0,0,1-8.39-20.24L131,157.09a11.85,11.85,0,0,1,16.77,16.76L63.24,258.38A11.8,11.8,0,0,1,54.86,261.86Z"/><path class="cls-2" d="M360.61,346.39a11.86,11.86,0,0,1-8.38-20.24l84.53-84.53a11.85,11.85,0,1,1,16.77,16.76L369,342.91A11.82,11.82,0,0,1,360.61,346.39Z"/><path class="cls-3" d="M182.69,378.42a11.86,11.86,0,0,1-10.26-17.78L307,127.51a11.86,11.86,0,0,1,20.54,11.85L193,372.49A11.84,11.84,0,0,1,182.69,378.42Z"/><path class="cls-4" d="M445.14,261.86a11.8,11.8,0,0,1-8.38-3.48l-84.53-84.53A11.85,11.85,0,0,1,369,157.09l84.53,84.53a11.86,11.86,0,0,1-8.39,20.24Z"/><path class="cls-5" d="M139.39,346.39a11.82,11.82,0,0,1-8.39-3.48L46.47,258.38a11.85,11.85,0,0,1,16.77-16.76l84.53,84.53a11.86,11.86,0,0,1-8.38,20.24Z"/></svg>