<svg id="Layer_1" data-name="Layer 1" xmlns="http://www.w3.org/2000/svg" viewBox="0 0 500 500"><defs><style>.cls-1{fill:#833d94;}.cls-2{fill:#42ade5;}.cls-3{fill:#c6de6c;}.cls-4{fill:#ed9f4a;}.cls-5{fill:#f9e06f;}.cls-6{fill:#fc3198;}</style></defs><title>icons</title><path class="cls-1" d="M201.62,435.65a10,10,0,0,1-7.25-3.11c-5.65-6-11.16-12.13-16.45-18.46l-9.7,7.05A10,10,0,0,1,156.46,405l17.35-12.61a10,10,0,0,1,13.71,1.87c6.73,8.46,13.91,16.72,21.35,24.56a10,10,0,0,1-7.25,16.88Z"/><path class="cls-2" d="M82.1,288.12a10,10,0,0,1-9.55-13,97,97,0,0,1,22-38.11A159.47,159.47,0,0,1,252.65,57C328.39,57,394.13,110.89,409,185.14a10,10,0,1,1-19.61,3.92,139.44,139.44,0,0,0-274.31,50,10,10,0,0,1-3.6,9.42c-.09.06-13.07,10.95-19.81,32.6A10,10,0,0,1,82.1,288.12Z"/><path class="cls-3" d="M264.87,443a10,10,0,0,1-6.21-2.16c-2.16-1.71-4.32-3.47-6.42-5.22a355.61,355.61,0,0,1-70.51-79.05c-9.72,5.17-27.31,17-38,39.16a10,10,0,0,1-18-8.71c19.1-39.45,55.05-52.09,56.57-52.61a10,10,0,0,1,11.73,4.2,336.09,336.09,0,0,0,71,81.63c2,1.65,4,3.31,6.06,4.92A10,10,0,0,1,264.87,443Z"/><path class="cls-4" d="M90.91,332.63a10,10,0,0,1-8.62-15.05c20-34.24,43.09-49.88,55.6-56.32a236.78,236.78,0,0,1-5.71-25,122.08,122.08,0,0,1,240.33-42.91,105.41,105.41,0,0,0,12.26,27.58A112.32,112.32,0,0,0,408.5,248a120.4,120.4,0,0,0,14.57,10.29,10,10,0,0,1-10.32,17.13,140.13,140.13,0,0,1-17-12,131.9,131.9,0,0,1-27.94-31.92A124.12,124.12,0,0,1,353,197.91l-.12-.54a102.08,102.08,0,0,0-201,35.64,230,230,0,0,0,7.61,30.87l3,9.63-9.67,2.93c-.21.07-29,9.65-53.33,51.24A10,10,0,0,1,90.91,332.63Z"/><path class="cls-5" d="M309.54,429.31a10,10,0,0,1-5.53-1.67,326.38,326.38,0,0,1-27.9-20.75,318.59,318.59,0,0,1-67.35-77.43c-30.31-48.92-38.4-91.28-39.72-99.27a84.72,84.72,0,0,1,69.88-97.35,84.7,84.7,0,0,1,97,68.3c.43,1.89,4.63,19.56,17.12,39.57a149.54,149.54,0,0,0,31.61,36.1,162.42,162.42,0,0,0,29.87,19.47,10,10,0,0,1-9.07,17.83,182.73,182.73,0,0,1-33.55-21.89,169.55,169.55,0,0,1-35.82-40.92c-14.52-23.25-19.24-43.8-19.73-46.07,0-.11-.05-.22-.07-.33a64.66,64.66,0,0,0-63.67-53.18,65.78,65.78,0,0,0-10.49.85,64.72,64.72,0,0,0-53.38,74.37c1.21,7.34,8.66,46.28,37,92a298.66,298.66,0,0,0,63.14,72.58A305.7,305.7,0,0,0,315.08,411a10,10,0,0,1-5.54,18.33Z"/><path class="cls-6" d="M345.45,407.64a9.93,9.93,0,0,1-5-1.35A290.82,290.82,0,0,1,300,378.16a281.28,281.28,0,0,1-59.47-68.37c-27.15-43.82-33.93-81.51-34.61-85.67A47.37,47.37,0,0,1,245,169.7a48.22,48.22,0,0,1,7.68-.62,47.24,47.24,0,0,1,46.64,39.19c.26,1.33,5.21,25.17,22.11,52.22a186.77,186.77,0,0,0,39.48,45.11,201.65,201.65,0,0,0,42.55,26.83,10,10,0,0,1-8.54,18.09A222.2,222.2,0,0,1,348.13,321a207,207,0,0,1-43.7-49.92c-19.26-30.85-24.58-58-24.8-59.13l0-.17a27.36,27.36,0,0,0-54,9.09c.62,3.75,6.76,37.83,31.88,78.38a261.92,261.92,0,0,0,55.25,63.52A271.06,271.06,0,0,0,350.46,389a10,10,0,0,1-5,18.67Z"/><path class="cls-6" d="M107.49,367.7A10,10,0,0,1,99,352.5c.82-1.35,20.6-33.4,58.74-53.39A10,10,0,1,1,167,316.82c-33.28,17.44-50.77,45.79-50.94,46.07A10,10,0,0,1,107.49,367.7Z"/><path class="cls-1" d="M379.34,384.28a9.92,9.92,0,0,1-4.47-1.06c-59.72-29.94-92.49-73.05-109.47-103.94-18.5-33.65-22.78-60.19-22.95-61.31a10,10,0,0,1,19.76-3.09c.05.35,4.13,24.87,21.13,55.51,22.72,41,56.53,72.91,100.49,94.95a10,10,0,0,1-4.49,18.94Z"/></svg>